<svg xmlns="http://www.w3.org/2000/svg" xmlns:xlink="http://www.w3.org/1999/xlink" width="203" height="185"><defs><linearGradient id="linear-gradient" x1="548.13" x2="538.27" y1="-315.46" y2="-321.15" gradientTransform="matrix(-.98 -.2 .2 -.98 714.96 -65.61)" gradientUnits="userSpaceOnUse"><stop offset="0" stop-color="#fff" stop-opacity="0"/><stop offset="1"/><stop offset="1" stop-color="#bebdbd" stop-opacity=".03"/></linearGradient><linearGradient id="linear-gradient-2" x1="545.92" x2="536.06" y1="-311.63" y2="-317.32" xlink:href="#linear-gradient"/><style>.cls-3{fill:#eeb967}</style></defs><rect width="203.1" height="185" fill="#2b2b2b" rx="25.05"/><path d="M59.48 51.29L70.4 40.35a5 5 0 017.08 0 5 5 0 010 7.07L66.55 58.36a5 5 0 01-7.07 0 5 5 0 010-7.07zM56.22 61.87a5.06 5.06 0 01-.11 7L35.65 89.28a3 3 0 000 4.21L74.13 132l3.2 3.17a5 5 0 011.3 4.84 5 5 0 01-8.5 2.2l-1.91-2-41.75-41.75L23 94.94a5 5 0 010-7.13l3.5-3.51L49 61.76a5 5 0 017.19.11zM123.88 122.94l-17.5-65.31a5 5 0 00-4.83-3.71h-2.67a5 5 0 00-4.83 3.71l-16.5 61.49a5 5 0 109.65 2.59l13-48.47 15.41 57.53 1.45 5.42 1.24 4.51 2.08-1.59 6-7z" class="cls-3"/><path fill="url(#linear-gradient-2)" d="M123.88 122.94c-.69-.85-1.52-1-2.52.2 0 0-.27 3.52-5.73 7.63l1.45 5.42 1.24 4.51 2.08-1.59 6-7z" opacity=".63"/><path d="M118.32 140.7v.05c1 3.72 6.29 7.33 9 4.61l2-2 44.86-44.86 3.5-3.5a5.06 5.06 0 000-7.15l-3.51-3.51-44-44a5.18 5.18 0 00-6.93-.48 5 5 0 00-.33 7.37l44.19 44.12v.07l-40.74 40.74z" class="cls-3"/></svg>
